<svg width="155" height="134" viewBox="0 0 155 134" fill="none" xmlns="http://www.w3.org/2000/svg">
<path d="M63.6931 111.827C65.6495 100.564 79.1867 78.9577 117.684 82.6344C111.18 120.076 86.7592 103.604 63.6931 111.827Z" fill="#EB8A23" fill-opacity="0.8"/>
<path d="M77.749 16.9577C75.6136 28.188 80.6742 53.1779 118 63.2944C125.099 25.961 96.4413 32.7773 77.749 16.9577Z" fill="#EB8A23" fill-opacity="0.8"/>
<path d="M50.022 25.7829C48.366 34.4916 50.5949 53.5481 72.7578 60.1035C78.2627 31.1527 60.7676 37.3375 50.022 25.7829Z" fill="#EB8A23" fill-opacity="0.8"/>
<path d="M32.9944 81.5335C38.1245 74.3039 53.4063 62.703 73.4926 74.1359C56.4384 98.1694 48.7713 81.2713 32.9944 81.5335Z" fill="#EB8A23" fill-opacity="0.8"/>
<path d="M5.57166 18.228C14.4197 18.7725 32.3367 25.6351 33.2201 48.7304C3.80618 46.9205 14.1171 31.4928 5.57166 18.228Z" fill="#EB8A23" fill-opacity="0.8"/>
<path d="M16.0518 29.034C32.8205 56.6648 61.2485 68.495 92.3605 70.9887C135.559 74.4511 145.934 89.2418 152.114 93.6972" stroke="#0080B2"/>
<path d="M125.47 77.7504C124.688 74.3406 119.281 63.0577 103.906 45.2052" stroke="#0080B2"/>
<path d="M76.4925 68.5177C75.7421 65.2551 73.0947 57.0508 66.8297 51.4807" stroke="#0080B2"/>
<path d="M84.1726 70.2589C81.2639 71.9163 73.4345 75.5246 65.0934 74.6873" stroke="#0080B2"/>
<path d="M124.909 76.0802C122.951 78.8753 113.904 87.0804 93.3815 97.54" stroke="#0080B2"/>
<circle cx="38.9855" cy="64.578" r="4.24329" transform="rotate(-97.7593 38.9855 64.578)" fill="#0080B2"/>
<circle cx="93.7517" cy="63.7821" r="4.24329" transform="rotate(-97.7593 93.7517 63.7821)" fill="#0080B2"/>
<circle cx="79.6981" cy="81.0826" r="4.24329" transform="rotate(-97.7593 79.6981 81.0826)" fill="#0080B2"/>
<circle cx="52.582" cy="54.6381" r="4.24329" transform="rotate(-97.7593 52.582 54.6381)" fill="#0080B2"/>
</svg>
